<svg width="40" height="54" viewBox="0 0 40 54" fill="none" xmlns="http://www.w3.org/2000/svg">
<g clip-path="url(#clip0_6_31736)">
<path d="M25.8385 53.8791C21.9456 53.8791 19.1102 52.9554 17.3289 51.1079C15.5493 49.2612 14.6586 47.2695 14.6586 45.1353C14.6586 44.3549 14.8135 43.6984 15.1241 43.1648C15.4271 42.6384 15.867 42.2022 16.398 41.9018C16.9362 41.5938 17.5984 41.4403 18.3855 41.4403C19.1727 41.4403 19.834 41.5938 20.373 41.9018C20.9112 42.2097 21.3356 42.6313 21.6461 43.1648C21.9567 43.6984 22.1116 44.3549 22.1116 45.1353C22.1116 46.0794 21.884 46.8488 21.4288 47.4442C20.9728 48.0397 20.4346 48.4291 19.8135 48.6148C20.3525 49.3528 21.2012 49.8762 22.3605 50.1841C23.5198 50.5132 24.6792 50.6769 25.8385 50.6769C27.4529 50.6769 28.9126 50.246 30.2173 49.3842C31.5212 48.5215 32.4846 47.2491 33.1057 45.5662C33.7269 43.8833 34.0375 41.9739 34.0375 39.8388C34.0375 37.5197 33.6952 35.5381 33.0125 33.8968C32.3494 32.2342 31.3664 31.0025 30.0616 30.2018C28.7971 29.4128 27.3325 28.9966 25.8385 29.0015C24.8443 29.0015 23.6028 29.412 22.1116 30.2332L19.3788 31.5878V30.2332L31.6769 13.9764H14.6586V30.8481C14.6586 32.2444 14.9692 33.3938 15.5903 34.2971C16.2115 35.2005 17.1638 35.6518 18.448 35.6518C19.4405 35.6518 20.3936 35.3235 21.3048 34.6661C22.2218 34.0031 23.0195 33.1915 23.6644 32.2656C23.7474 32.0798 23.851 31.9466 23.975 31.8644C24.0866 31.7667 24.23 31.7122 24.3788 31.7108C24.6064 31.7108 24.8751 31.8236 25.1865 32.0501C25.4766 32.3775 25.6211 32.7576 25.6211 33.1885C25.5855 33.4787 25.5335 33.7667 25.4654 34.0512C24.7621 35.6111 23.7885 36.8012 22.5462 37.6223C21.3368 38.4334 19.9081 38.8628 18.448 38.854C14.7621 38.854 12.2151 38.1355 10.8077 36.6994C9.40024 35.2616 8.6961 33.3115 8.6961 30.849V13.9764H0V10.8353H8.6961V3.69297L6.70859 1.72078V0.120972H12.4846L14.6578 1.22879V10.8353L37.1424 10.7742L39.3788 12.9907L25.5903 26.6612C26.4251 26.3313 27.3039 26.1238 28.199 26.0453C29.6894 26.0453 31.3664 26.5178 33.2298 27.4619C35.1138 28.3857 36.5631 29.6589 37.577 31.2791C38.5917 32.8806 39.2437 34.4201 39.5337 35.8978C39.8443 37.3763 40 38.6894 40 39.8388C40 42.4667 39.4405 44.9088 38.3231 47.1677C37.2048 49.4249 35.5074 51.1079 33.2298 52.2165C30.9523 53.3252 28.4882 53.8791 25.8385 53.8791Z" fill="black"/>
</g>
<defs>
<clipPath id="clip0_6_31736">
<rect width="40" height="54" fill="white"/>
</clipPath>
</defs>
</svg>
